{"asset":{"version":"2.0","generator":"Babylon2Gltf2017","copyright":"2017 (c) BabylonJS"},"extensionsUsed":[],"extensionsRequired":[],"scene":0,"scenes":[{"nodes":[0,4,5,6,9,10,11,12,13,14,15,16,17]}],"nodes":[{"children":[1,2,3],"translation":[2.23995562E-12,0.01,-1.66524874E-08],"rotation":[-9.938819E-23,1.0,-7.5036E-30,7.54979E-08],"scale":[1.0,1.0,1.0],"name":"FieldLines:1"},{"mesh":0,"translation":[0.0,0.0,0.0],"rotation":[0.0,8.74227837E-08,0.0,-1.0],"scale":[1.0,1.0,1.0],"name":"FieldLines:1"},{"mesh":1,"translation":[0.0,0.0,0.0],"rotation":[0.0,8.74227837E-08,0.0,-1.0],"scale":[1.0,1.0,1.0],"name":"FieldLines:1"},{"mesh":2,"translation":[0.0,0.0,0.0],"rotation":[0.0,8.74227837E-08,0.0,-1.0],"scale":[1.0,1.0,1.0],"name":"FieldLines:1"},{"mesh":3,"translation":[-20.0,0.0,-2.251149E-11],"rotation":[-9.284949E-23,1.0,-2.61956234E-29,2.82129974E-07],"scale":[1.0,1.0,1.0],"name":"Goal:1"},{"mesh":3,"translation":[20.0,0.0,-1.89857019E-11],"rotation":[-2.18556941E-08,-2.57291255E-15,5.623279E-23,-1.0],"scale":[1.0,1.0,1.0],"name":"Goal:2"},{"children":[7,8],"translation":[-7.320629E-27,0.0,0.0],"rotation":[0.0,1.0,0.0,7.54979E-08],"scale":[1.0,1.0,1.0],"name":"Border:1"},{"mesh":4,"translation":[0.0,0.0,0.0],"rotation":[0.0,8.74227837E-08,0.0,-1.0],"scale":[1.0,1.0,1.0],"name":"Border:1"},{"mesh":5,"translation":[0.0,0.0,0.0],"rotation":[0.0,8.74227837E-08,0.0,-1.0],"scale":[1.0,1.0,1.0],"name":"Border:1"},{"mesh":6,"translation":[0.0,0.0,0.0],"rotation":[0.0,1.0,0.0,2.82129974E-07],"scale":[1.0,1.0,1.0],"name":"ConcreteFloor:1"},{"mesh":7,"translation":[6303.3335,1.0,-10.0],"rotation":[-2.18556941E-08,0.0,0.0,-1.0],"scale":[1.0,1.0,1.0],"name":"Scoreboard:1"},{"mesh":8,"translation":[-6303.3335,1.0,10.0],"rotation":[0.0,1.0,0.0,2.82129974E-07],"scale":[1.0,1.0,1.0],"name":"VideoJukebox:1"},{"mesh":9,"translation":[-5436.1167,5467.15234,-3736.11621],"rotation":[-0.653281569,-0.270598054,0.2705981,-0.6532814],"scale":[1.0,1.0,1.0],"name":"Lights:1"},{"mesh":10,"translation":[-5436.1167,5467.15234,3736.1167],"rotation":[-0.653281569,0.270598,-0.270598,-0.65328145],"scale":[1.0,1.0,1.0],"name":"Lights_MIR:1"},{"mesh":11,"translation":[5436.1167,5467.15234,-3736.11621],"rotation":[0.270598054,0.6532815,-0.65328145,0.270598084],"scale":[1.0,1.0,1.0],"name":"Lights_MIR1:1"},{"mesh":12,"translation":[5436.1167,5467.15234,3736.1167],"rotation":[-0.270598084,0.6532815,-0.65328145,-0.270598054],"scale":[1.0,1.0,1.0],"name":"Lights_MIR_MIR:1"},{"mesh":13,"translation":[0.0,0.0,0.0],"rotation":[0.0,0.0,0.0,-1.0],"scale":[1.0,1.0,1.0],"name":"Plane001"},{"camera":0,"translation":[-8557.068,4436.18555,11774.59],"rotation":[-0.5156936,0.2522563,-0.162079349,-0.802594],"scale":[1.0,1.0,1.0],"name":"VRayDomeCamera001"}],"cameras":[{"perspective":{"yfov":0.457822353,"zfar":10000.0,"znear":0.1},"type":"perspective","name":"VRayDomeCamera001"}],"meshes":[{"primitives":[{"attributes":{"POSITION":1,"NORMAL":2,"TEXCOORD_0":3},"indices":0,"mode":4,"material":0}],"name":"FieldLines:1"},{"primitives":[{"attributes":{"POSITION":5,"NORMAL":6,"TEXCOORD_0":7},"indices":4,"mode":4,"material":0}],"name":"FieldLines:1"},{"primitives":[{"attributes":{"POSITION":9,"NORMAL":10,"TEXCOORD_0":11},"indices":8,"mode":4,"material":0}],"name":"FieldLines:1"},{"primitives":[{"attributes":{"POSITION":13,"NORMAL":14,"TEXCOORD_0":15},"indices":12,"mode":4,"material":1},{"attributes":{"POSITION":17,"NORMAL":18,"TEXCOORD_0":19},"indices":16,"mode":4,"material":2}],"name":"Goal:1"},{"primitives":[{"attributes":{"POSITION":21,"NORMAL":22,"TEXCOORD_0":23},"indices":20,"mode":4,"material":3}],"name":"Border:1"},{"primitives":[{"attributes":{"POSITION":25,"NORMAL":26,"TEXCOORD_0":27},"indices":24,"mode":4,"material":3}],"name":"Border:1"},{"primitives":[{"attributes":{"POSITION":29,"NORMAL":30,"TEXCOORD_0":31},"indices":28,"mode":4,"material":4}],"name":"ConcreteFloor:1"},{"primitives":[{"attributes":{"POSITION":33,"NORMAL":34,"TEXCOORD_0":35},"indices":32,"mode":4,"material":5}],"name":"Scoreboard:1"},{"primitives":[{"attributes":{"POSITION":37,"NORMAL":38,"TEXCOORD_0":39},"indices":36,"mode":4,"material":5}],"name":"VideoJukebox:1"},{"primitives":[{"attributes":{"POSITION":41,"NORMAL":42,"TEXCOORD_0":43},"indices":40,"mode":4,"material":6}],"name":"Lights:1"},{"primitives":[{"attributes":{"POSITION":45,"NORMAL":46,"TEXCOORD_0":47},"indices":44,"mode":4,"material":6}],"name":"Lights_MIR:1"},{"primitives":[{"attributes":{"POSITION":49,"NORMAL":50,"TEXCOORD_0":51},"indices":48,"mode":4,"material":6}],"name":"Lights_MIR1:1"},{"primitives":[{"attributes":{"POSITION":53,"NORMAL":54,"TEXCOORD_0":55},"indices":52,"mode":4,"material":6}],"name":"Lights_MIR_MIR:1"},{"primitives":[{"attributes":{"POSITION":57,"NORMAL":58,"TEXCOORD_0":59},"indices":56,"mode":4,"material":7}],"name":"Plane001"}],"accessors":[{"bufferView":0,"componentType":5123,"count":756,"type":"SCALAR","name":"accessorIndices"},{"bufferView":1,"componentType":5126,"count":756,"max":[4930.0,0.5,30.0],"min":[4870.0,0.5,-30.0],"type":"VEC3","name":"accessorPositions"},{"bufferView":1,"byteOffset":9072,"componentType":5126,"count":756,"type":"VEC3","name":"accessorNormals"},{"bufferView":2,"componentType":5126,"count":756,"type":"VEC2","name":"accessorUVs"},{"bufferView":0,"byteOffset":1512,"componentType":5123,"count":3600,"type":"SCALAR","name":"accessorIndices"},{"bufferView":1,"byteOffset":18144,"componentType":5126,"count":3600,"max":[6000.0,0.5015015,4500.0],"min":[-6000.0,0.5015015,-4500.0],"type":"VEC3","name":"accessorPositions"},{"bufferView":1,"byteOffset":61344,"componentType":5126,"count":3600,"type":"VEC3","name":"accessorNormals"},{"bufferView":2,"byteOffset":6048,"componentType":5126,"count":3600,"type":"VEC2","name":"accessorUVs"},{"bufferView":0,"byteOffset":8712,"componentType":5123,"count":756,"type":"SCALAR","name":"accessorIndices"},{"bufferView":1,"byteOffset":104544,"componentType":5126,"count":756,"max":[-4870.0,0.5,30.0],"min":[-4930.0,0.5,-30.0],"type":"VEC3","name":"accessorPositions"},{"bufferView":1,"byteOffset":113616,"componentType":5126,"count":756,"type":"VEC3","name":"accessorNormals"},{"bufferView":2,"byteOffset":34848,"componentType":5126,"count":756,"type":"VEC2","name":"accessorUVs"},{"bufferView":0,"byteOffset":10224,"componentType":5123,"count":360,"type":"SCALAR","name":"accessorIndices"},{"bufferView":1,"byteOffset":122688,"componentType":5126,"count":360,"max":[6170.0,244.0,376.0],"min":[5980.0,-8.158715E-26,-376.0],"type":"VEC3","name":"accessorPositions"},{"bufferView":1,"byteOffset":127008,"componentType":5126,"count":360,"type":"VEC3","name":"accessorNormals"},{"bufferView":2,"byteOffset":40896,"componentType":5126,"count":360,"type":"VEC2","name":"accessorUVs"},{"bufferView":0,"byteOffset":10944,"componentType":5123,"count":48,"type":"SCALAR","name":"accessorIndices"},{"bufferView":1,"byteOffset":131328,"componentType":5126,"count":48,"max":[6161.0,235.0,367.0],"min":[6000.0,20.0,-367.0],"type":"VEC3","name":"accessorPositions"},{"bufferView":1,"byteOffset":131904,"componentType":5126,"count":48,"type":"VEC3","name":"accessorNormals"},{"bufferView":2,"byteOffset":43776,"componentType":5126,"count":48,"type":"VEC2","name":"accessorUVs"},{"bufferView":0,"byteOffset":11040,"componentType":5123,"count":84,"type":"SCALAR","name":"accessorIndices"},{"bufferView":1,"byteOffset":132480,"componentType":5126,"count":84,"max":[6010.0,150.0,-376.0],"min":[-6010.0,0.0,-4510.0],"type":"VEC3","name":"accessorPositions"},{"bufferView":1,"byteOffset":133488,"componentType":5126,"count":84,"type":"VEC3","name":"accessorNormals"},{"bufferView":2,"byteOffset":44160,"componentType":5126,"count":84,"type":"VEC2","name":"accessorUVs"},{"bufferView":0,"byteOffset":11208,"componentType":5123,"count":84,"type":"SCALAR","name":"accessorIndices"},{"bufferView":1,"byteOffset":134496,"componentType":5126,"count":84,"max":[6010.0,150.0,4510.0],"min":[-6010.0,0.0,376.0],"type":"VEC3","name":"accessorPositions"},{"bufferView":1,"byteOffset":135504,"componentType":5126,"count":84,"type":"VEC3","name":"accessorNormals"},{"bufferView":2,"byteOffset":44832,"componentType":5126,"count":84,"type":"VEC2","name":"accessorUVs"},{"bufferView":0,"byteOffset":11376,"componentType":5123,"count":96,"type":"SCALAR","name":"accessorIndices"},{"bufferView":1,"byteOffset":136512,"componentType":5126,"count":96,"max":[8200.0,1.0,6500.0],"min":[-8200.0,0.0,-6500.0],"type":"VEC3","name":"accessorPositions"},{"bufferView":1,"byteOffset":137664,"componentType":5126,"count":96,"type":"VEC3","name":"accessorNormals"},{"bufferView":2,"byteOffset":45504,"componentType":5126,"count":96,"type":"VEC2","name":"accessorUVs"},{"bufferView":0,"byteOffset":11568,"componentType":5123,"count":300,"type":"SCALAR","name":"accessorIndices"},{"bufferView":1,"byteOffset":138816,"componentType":5126,"count":300,"max":[-3803.33325,2200.0,-4550.0],"min":[-8803.333,-5.96046448E-08,-4750.0],"type":"VEC3","name":"accessorPositions"},{"bufferView":1,"byteOffset":142416,"componentType":5126,"count":300,"type":"VEC3","name":"accessorNormals"},{"bufferView":2,"byteOffset":46272,"componentType":5126,"count":300,"type":"VEC2","name":"accessorUVs"},{"bufferView":0,"byteOffset":12168,"componentType":5123,"count":300,"type":"SCALAR","name":"accessorIndices"},{"bufferView":1,"byteOffset":146016,"componentType":5126,"count":300,"max":[-4603.3335,2200.0,-4550.0],"min":[-8003.334,0.0,-4750.0],"type":"VEC3","name":"accessorPositions"},{"bufferView":1,"byteOffset":149616,"componentType":5126,"count":300,"type":"VEC3","name":"accessorNormals"},{"bufferView":2,"byteOffset":48672,"componentType":5126,"count":300,"type":"VEC2","name":"accessorUVs"},{"bufferView":0,"byteOffset":12768,"componentType":5123,"count":14676,"type":"SCALAR","name":"accessorIndices"},{"bufferView":1,"byteOffset":153216,"componentType":5126,"count":14676,"max":[1330.0,1088.94434,5466.15234],"min":[-1330.0,-1433.84863,-947.523438],"type":"VEC3","name":"accessorPositions"},{"bufferView":1,"byteOffset":329328,"componentType":5126,"count":14676,"type":"VEC3","name":"accessorNormals"},{"bufferView":2,"byteOffset":51072,"componentType":5126,"count":14676,"type":"VEC2","name":"accessorUVs"},{"bufferView":0,"byteOffset":42120,"componentType":5123,"count":14676,"type":"SCALAR","name":"accessorIndices"},{"bufferView":1,"byteOffset":505440,"componentType":5126,"count":14676,"max":[1329.99976,1433.84766,5466.15234],"min":[-1330.00024,-1088.94434,-947.523438],"type":"VEC3","name":"accessorPositions"},{"bufferView":1,"byteOffset":681552,"componentType":5126,"count":14676,"type":"VEC3","name":"accessorNormals"},{"bufferView":2,"byteOffset":168480,"componentType":5126,"count":14676,"type":"VEC2","name":"accessorUVs"},{"bufferView":0,"byteOffset":71472,"componentType":5123,"count":14676,"type":"SCALAR","name":"accessorIndices"},{"bufferView":1,"byteOffset":857664,"componentType":5126,"count":14676,"max":[1330.00049,1433.84814,5466.15234],"min":[-1330.00024,-1088.94482,-947.523438],"type":"VEC3","name":"accessorPositions"},{"bufferView":1,"byteOffset":1033776,"componentType":5126,"count":14676,"type":"VEC3","name":"accessorNormals"},{"bufferView":2,"byteOffset":285888,"componentType":5126,"count":14676,"type":"VEC2","name":"accessorUVs"},{"bufferView":0,"byteOffset":100824,"componentType":5123,"count":14676,"type":"SCALAR","name":"accessorIndices"},{"bufferView":1,"byteOffset":1209888,"componentType":5126,"count":14676,"max":[1330.0,1088.94482,5466.15234],"min":[-1330.00073,-1433.84814,-947.522949],"type":"VEC3","name":"accessorPositions"},{"bufferView":1,"byteOffset":1386000,"componentType":5126,"count":14676,"type":"VEC3","name":"accessorNormals"},{"bufferView":2,"byteOffset":403296,"componentType":5126,"count":14676,"type":"VEC2","name":"accessorUVs"},{"bufferView":0,"byteOffset":130176,"componentType":5123,"count":96,"type":"SCALAR","name":"accessorIndices"},{"bufferView":1,"byteOffset":1562112,"componentType":5126,"count":96,"max":[6200.0,0.0,4500.0],"min":[-6200.0,0.0,-4500.0],"type":"VEC3","name":"accessorPositions"},{"bufferView":1,"byteOffset":1563264,"componentType":5126,"count":96,"type":"VEC3","name":"accessorNormals"},{"bufferView":2,"byteOffset":520704,"componentType":5126,"count":96,"type":"VEC2","name":"accessorUVs"}],"bufferViews":[{"buffer":0,"byteLength":130368,"name":"bufferViewScalar"},{"buffer":0,"byteOffset":130368,"byteLength":1564416,"byteStride":12,"name":"bufferViewFloatVec3"},{"buffer":0,"byteOffset":1694784,"byteLength":521472,"byteStride":8,"name":"bufferViewFloatVec2"}],"buffers":[{"uri":"Soccerfield.bin","byteLength":2216256}],"materials":[{"pbrMetallicRoughness":{"baseColorFactor":[1.0,1.0,1.0,1.0],"metallicFactor":0.0,"roughnessFactor":0.31},"emissiveFactor":[0.0,0.0,0.0],"alphaMode":"OPAQUE","name":"02 - Default"},{"pbrMetallicRoughness":{"baseColorFactor":[0.656078458,0.656078458,0.7,1.0],"metallicFactor":0.0,"roughnessFactor":0.28},"emissiveFactor":[0.0,0.0,0.0],"alphaMode":"OPAQUE","name":"Material #28"},{"pbrMetallicRoughness":{"baseColorFactor":[0.235294133,0.235294133,0.235294133,1.0],"metallicFactor":0.0,"roughnessFactor":0.0},"emissiveFactor":[0.0,0.0,0.0],"alphaMode":"OPAQUE","name":"Material #29"},{"pbrMetallicRoughness":{"baseColorFactor":[0.09882353,0.09882353,0.09882353,1.0],"metallicFactor":0.0,"roughnessFactor":0.459999979},"emissiveFactor":[0.0,0.0,0.0],"alphaMode":"OPAQUE","name":"border"},{"pbrMetallicRoughness":{"baseColorFactor":[0.5,0.5,0.5,1.0],"metallicFactor":0.0,"roughnessFactor":0.4564466},"normalTexture":{"index":0},"emissiveFactor":[0.0,0.0,0.0],"alphaMode":"OPAQUE","name":"03 - Default"},{"pbrMetallicRoughness":{"baseColorFactor":[0.0,0.0,0.0,1.0],"metallicFactor":0.24,"roughnessFactor":0.0},"emissiveFactor":[0.0,0.0,0.0],"alphaMode":"OPAQUE","name":"Billboards"},{"pbrMetallicRoughness":{"baseColorFactor":[0.914,0.914,0.92,1.0],"metallicFactor":1.0,"roughnessFactor":0.51},"emissiveFactor":[0.0,0.0,0.0],"alphaMode":"OPAQUE","name":"steel"},{"pbrMetallicRoughness":{"baseColorFactor":[0.0,0.553956866,0.0,1.0],"metallicFactor":0.0,"roughnessFactor":0.0},"emissiveFactor":[0.0,0.0,0.0],"alphaMode":"OPAQUE","name":"01 - Default"}],"textures":[{"sampler":0,"source":0,"name":"Concrete.Cast-In-Place.Flat.Broom.Grey.bump.jpg"}],"images":[{"uri":"Concrete.Cast-In-Place.Flat.Broom.Grey.bump.jpg"}],"samplers":[{"magFilter":9729,"minFilter":9987,"wrapS":10497,"wrapT":10497}]}