{"asset":{"version":"2.0","generator":"Babylon2Gltf2017","copyright":"2017 (c) BabylonJS"},"extensionsUsed":[],"extensionsRequired":[],"scene":0,"scenes":[{"nodes":[0]}],"nodes":[{"mesh":0,"translation":[6159.408,10.0067921,-366.072479],"rotation":[0.50000006,-0.5,-0.5,-0.5],"scale":[1.0,1.0,1.0],"name":"BackNetGoal"}],"meshes":[{"primitives":[{"attributes":{"POSITION":1,"NORMAL":2,"TEXCOORD_0":3},"indices":0,"mode":4,"material":0}],"name":"BackNetGoal"}],"accessors":[{"bufferView":0,"componentType":5123,"count":62424,"type":"SCALAR","name":"accessorIndices"},{"bufferView":1,"componentType":5126,"count":62424,"max":[-10.0,0.5,214.000015],"min":[-722.0,0.5,9.999998],"type":"VEC3","name":"accessorPositions"},{"bufferView":1,"byteOffset":749088,"componentType":5126,"count":62424,"type":"VEC3","name":"accessorNormals"},{"bufferView":2,"componentType":5126,"count":62424,"type":"VEC2","name":"accessorUVs"}],"bufferViews":[{"buffer":0,"byteLength":124848,"name":"bufferViewScalar"},{"buffer":0,"byteOffset":124848,"byteLength":1498176,"byteStride":12,"name":"bufferViewFloatVec3"},{"buffer":0,"byteOffset":1623024,"byteLength":499392,"byteStride":8,"name":"bufferViewFloatVec2"}],"buffers":[{"uri":"BackNetGoal.bin","byteLength":2122416}],"materials":[{"pbrMetallicRoughness":{"baseColorFactor":[0.0,0.733333349,0.7607844,1.0],"metallicFactor":0.0,"roughnessFactor":0.0},"emissiveFactor":[0.0,0.0,0.0],"alphaMode":"OPAQUE","name":"Net"}]}