{"asset":{"version":"2.0","generator":"Babylon2Gltf2017","copyright":"2017 (c) BabylonJS"},"extensionsUsed":[],"extensionsRequired":[],"scene":0,"scenes":[{"nodes":[0]}],"nodes":[{"children":[1],"translation":[-7.320629E-27,0.0,0.0],"rotation":[0.0,1.0,0.0,7.54979E-08],"scale":[1.0,1.0,1.0],"name":"Border:1"},{"mesh":0,"translation":[0.0,0.0,0.0],"rotation":[0.0,8.74227837E-08,0.0,-1.0],"scale":[1.0,1.0,1.0],"name":"Border"}],"meshes":[{"primitives":[{"attributes":{"POSITION":1,"NORMAL":2,"TEXCOORD_0":3},"indices":0,"mode":4,"material":0}],"name":"Border"}],"accessors":[{"bufferView":0,"componentType":5123,"count":108,"type":"SCALAR","name":"accessorIndices"},{"bufferView":1,"componentType":5126,"count":108,"max":[6340.0,100.0,4690.0],"min":[-6190.0,0.0,376.0],"type":"VEC3","name":"accessorPositions"},{"bufferView":1,"byteOffset":1296,"componentType":5126,"count":108,"type":"VEC3","name":"accessorNormals"},{"bufferView":2,"componentType":5126,"count":108,"type":"VEC2","name":"accessorUVs"}],"bufferViews":[{"buffer":0,"byteLength":216,"name":"bufferViewScalar"},{"buffer":0,"byteOffset":216,"byteLength":2592,"byteStride":12,"name":"bufferViewFloatVec3"},{"buffer":0,"byteOffset":2808,"byteLength":864,"byteStride":8,"name":"bufferViewFloatVec2"}],"buffers":[{"uri":"Border.bin","byteLength":3672}],"materials":[{"pbrMetallicRoughness":{"baseColorFactor":[1.0,1.0,1.0,1.0],"baseColorTexture":{"index":0},"metallicFactor":0.0,"roughnessFactor":0.0},"emissiveFactor":[0.0,0.0,0.0],"alphaMode":"OPAQUE","name":"Concrete"}],"textures":[{"sampler":0,"source":0,"name":"Concrete_baseColor.png"}],"images":[{"uri":"Concrete_baseColor.png"}],"samplers":[{"magFilter":9729,"minFilter":9987,"wrapS":10497,"wrapT":10497}]}