{"asset":{"version":"2.0","generator":"Babylon2Gltf2017","copyright":"2017 (c) BabylonJS"},"extensionsUsed":[],"extensionsRequired":[],"scene":0,"scenes":[{"nodes":[0]}],"nodes":[{"mesh":0,"translation":[0.0,-50.0,50.0],"rotation":[-5.96046448E-08,0.0,0.0,-1.0],"scale":[1.0,1.0,1.0],"name":"Border02"}],"meshes":[{"primitives":[{"attributes":{"POSITION":1,"NORMAL":2,"TEXCOORD_0":3},"indices":0,"mode":4,"material":0}],"name":"Border02"}],"accessors":[{"bufferView":0,"componentType":5123,"count":84,"type":"SCALAR","name":"accessorIndices"},{"bufferView":1,"componentType":5126,"count":84,"max":[6190.0,100.0,-376.0],"min":[-6190.0,-3.81469727E-06,-4690.0],"type":"VEC3","name":"accessorPositions"},{"bufferView":1,"byteOffset":1008,"componentType":5126,"count":84,"type":"VEC3","name":"accessorNormals"},{"bufferView":2,"componentType":5126,"count":84,"type":"VEC2","name":"accessorUVs"}],"bufferViews":[{"buffer":0,"byteLength":168,"name":"bufferViewScalar"},{"buffer":0,"byteOffset":168,"byteLength":2016,"byteStride":12,"name":"bufferViewFloatVec3"},{"buffer":0,"byteOffset":2184,"byteLength":672,"byteStride":8,"name":"bufferViewFloatVec2"}],"buffers":[{"uri":"Border.bin","byteLength":2856}],"materials":[{"pbrMetallicRoughness":{"baseColorFactor":[1.0,1.0,1.0,1.0],"baseColorTexture":{"index":0},"metallicFactor":0.0,"roughnessFactor":0.0},"emissiveFactor":[0.0,0.0,0.0],"alphaMode":"OPAQUE","name":"Concrete"}],"textures":[{"sampler":0,"source":0,"name":"Concrete_baseColor.png"}],"images":[{"uri":"Concrete_baseColor.png"}],"samplers":[{"magFilter":9729,"minFilter":9987,"wrapS":10497,"wrapT":10497}]}