{"asset":{"version":"2.0","generator":"Babylon2Gltf2017","copyright":"2017 (c) BabylonJS"},"extensionsUsed":[],"extensionsRequired":[],"scene":0,"scenes":[{"nodes":[0]}],"nodes":[{"children":[1,2,3],"translation":[2.23995562E-12,0.1,-1.66524874E-08],"rotation":[-9.938819E-23,1.0,-7.5036E-30,7.54979E-08],"scale":[1.0,1.0,1.0],"name":"FieldLines:1"},{"mesh":0,"translation":[0.0,0.0,0.0],"rotation":[0.0,8.74227837E-08,0.0,-1.0],"scale":[1.0,1.0,1.0],"name":"FieldLines:1"},{"mesh":1,"translation":[0.0,0.0,0.0],"rotation":[0.0,8.74227837E-08,0.0,-1.0],"scale":[1.0,1.0,1.0],"name":"FieldLines:1"},{"mesh":2,"translation":[0.0,0.0,0.0],"rotation":[0.0,8.74227837E-08,0.0,-1.0],"scale":[1.0,1.0,1.0],"name":"FieldLines:1"}],"meshes":[{"primitives":[{"attributes":{"POSITION":1,"NORMAL":2,"TEXCOORD_0":3},"indices":0,"mode":4,"material":0}],"name":"FieldLines:1"},{"primitives":[{"attributes":{"POSITION":5,"NORMAL":6,"TEXCOORD_0":7},"indices":4,"mode":4,"material":0}],"name":"FieldLines:1"},{"primitives":[{"attributes":{"POSITION":9,"NORMAL":10,"TEXCOORD_0":11},"indices":8,"mode":4,"material":0}],"name":"FieldLines:1"}],"accessors":[{"bufferView":0,"componentType":5123,"count":756,"type":"SCALAR","name":"accessorIndices"},{"bufferView":1,"componentType":5126,"count":756,"max":[4930.0,0.5,30.0],"min":[4870.0,0.5,-30.0],"type":"VEC3","name":"accessorPositions"},{"bufferView":1,"byteOffset":9072,"componentType":5126,"count":756,"type":"VEC3","name":"accessorNormals"},{"bufferView":2,"componentType":5126,"count":756,"type":"VEC2","name":"accessorUVs"},{"bufferView":0,"byteOffset":1512,"componentType":5123,"count":3600,"type":"SCALAR","name":"accessorIndices"},{"bufferView":1,"byteOffset":18144,"componentType":5126,"count":3600,"max":[6000.0,0.5015015,4500.0],"min":[-6000.0,0.5015015,-4500.0],"type":"VEC3","name":"accessorPositions"},{"bufferView":1,"byteOffset":61344,"componentType":5126,"count":3600,"type":"VEC3","name":"accessorNormals"},{"bufferView":2,"byteOffset":6048,"componentType":5126,"count":3600,"type":"VEC2","name":"accessorUVs"},{"bufferView":0,"byteOffset":8712,"componentType":5123,"count":756,"type":"SCALAR","name":"accessorIndices"},{"bufferView":1,"byteOffset":104544,"componentType":5126,"count":756,"max":[-4870.0,0.5,30.0],"min":[-4930.0,0.5,-30.0],"type":"VEC3","name":"accessorPositions"},{"bufferView":1,"byteOffset":113616,"componentType":5126,"count":756,"type":"VEC3","name":"accessorNormals"},{"bufferView":2,"byteOffset":34848,"componentType":5126,"count":756,"type":"VEC2","name":"accessorUVs"}],"bufferViews":[{"buffer":0,"byteLength":10224,"name":"bufferViewScalar"},{"buffer":0,"byteOffset":10224,"byteLength":122688,"byteStride":12,"name":"bufferViewFloatVec3"},{"buffer":0,"byteOffset":132912,"byteLength":40896,"byteStride":8,"name":"bufferViewFloatVec2"}],"buffers":[{"uri":"FieldLines.bin","byteLength":173808}],"materials":[{"pbrMetallicRoughness":{"baseColorFactor":[1.0,1.0,1.0,1.0],"metallicFactor":0.0,"roughnessFactor":0.31},"emissiveFactor":[0.0,0.0,0.0],"alphaMode":"OPAQUE","name":"Lines"}]}