{"asset":{"version":"2.0","generator":"Babylon2Gltf2017","copyright":"2017 (c) BabylonJS"},"extensionsUsed":[],"extensionsRequired":[],"scene":0,"scenes":[{"nodes":[0]}],"nodes":[{"mesh":0,"translation":[0.0,87.4265747,0.0],"rotation":[-0.7071068,0.0,0.0,-0.7071067],"scale":[1.0,1.0,1.0],"name":"Flag"}],"meshes":[{"primitives":[{"attributes":{"POSITION":1,"NORMAL":2,"TEXCOORD_0":3},"indices":0,"mode":4,"material":0},{"attributes":{"POSITION":5,"NORMAL":6,"TEXCOORD_0":7},"indices":4,"mode":4,"material":1},{"attributes":{"POSITION":9,"NORMAL":10,"TEXCOORD_0":11},"indices":8,"mode":4,"material":2}],"name":"Flag"}],"accessors":[{"bufferView":0,"componentType":5123,"count":66,"type":"SCALAR","name":"accessorIndices"},{"bufferView":1,"componentType":5126,"count":66,"max":[1.0,1.15470052,0.0],"min":[-1.0,-1.15470052,-39.5],"type":"VEC3","name":"accessorPositions"},{"bufferView":1,"byteOffset":792,"componentType":5126,"count":66,"type":"VEC3","name":"accessorNormals"},{"bufferView":2,"componentType":5126,"count":66,"type":"VEC2","name":"accessorUVs"},{"bufferView":0,"byteOffset":132,"componentType":5123,"count":192,"type":"SCALAR","name":"accessorIndices"},{"bufferView":1,"byteOffset":1584,"componentType":5126,"count":192,"max":[1.73205078,1.5,-39.21492],"min":[-1.73205078,-1.5,-40.5],"type":"VEC3","name":"accessorPositions"},{"bufferView":1,"byteOffset":3888,"componentType":5126,"count":192,"type":"VEC3","name":"accessorNormals"},{"bufferView":2,"byteOffset":528,"componentType":5126,"count":192,"type":"VEC2","name":"accessorUVs"},{"bufferView":0,"byteOffset":516,"componentType":5123,"count":1038,"type":"SCALAR","name":"accessorIndices"},{"bufferView":1,"byteOffset":6192,"componentType":5126,"count":1038,"max":[21.0,0.100000009,-24.0],"min":[1.0,-0.1,-39.0],"type":"VEC3","name":"accessorPositions"},{"bufferView":1,"byteOffset":18648,"componentType":5126,"count":1038,"type":"VEC3","name":"accessorNormals"},{"bufferView":2,"byteOffset":2064,"componentType":5126,"count":1038,"type":"VEC2","name":"accessorUVs"}],"bufferViews":[{"buffer":0,"byteLength":2592,"name":"bufferViewScalar"},{"buffer":0,"byteOffset":2592,"byteLength":31104,"byteStride":12,"name":"bufferViewFloatVec3"},{"buffer":0,"byteOffset":33696,"byteLength":10368,"byteStride":8,"name":"bufferViewFloatVec2"}],"buffers":[{"uri":"Flag.bin","byteLength":44064}],"materials":[{"pbrMetallicRoughness":{"baseColorFactor":[1.0,1.0,1.0,1.0],"baseColorTexture":{"index":0},"metallicFactor":0.0,"roughnessFactor":0.0},"emissiveFactor":[0.0,0.0,0.0],"alphaMode":"BLEND","name":"Wood"},{"pbrMetallicRoughness":{"baseColorFactor":[1.0,0.0,0.0,1.0],"metallicFactor":0.0,"roughnessFactor":0.0},"emissiveFactor":[0.0,0.0,0.0],"alphaMode":"OPAQUE","name":"Material #73"},{"pbrMetallicRoughness":{"baseColorFactor":[0.6784314,0.694117665,0.9843138,1.0],"metallicFactor":0.0,"roughnessFactor":0.0},"emissiveFactor":[0.0,0.0,0.0],"alphaMode":"OPAQUE","name":"Material #74"}],"textures":[{"sampler":0,"source":0,"name":"Wood_baseColor.png"}],"images":[{"uri":"Wood_baseColor.png"}],"samplers":[{"magFilter":9729,"minFilter":9987,"wrapS":10497,"wrapT":10497}]}