{"asset":{"version":"2.0","generator":"Babylon2Gltf2017","copyright":"2017 (c) BabylonJS"},"extensionsUsed":[],"extensionsRequired":[],"scene":0,"scenes":[{"nodes":[0]}],"nodes":[{"mesh":0,"translation":[-20.0,0.0,-2.251149E-11],"rotation":[-9.284949E-23,1.0,-2.61956234E-29,2.82129974E-07],"scale":[1.0,1.0,1.0],"name":"Goal:1"}],"meshes":[{"primitives":[{"attributes":{"POSITION":1,"NORMAL":2,"TEXCOORD_0":3},"indices":0,"mode":4,"material":0}],"name":"Goal:1"}],"accessors":[{"bufferView":0,"componentType":5123,"count":360,"type":"SCALAR","name":"accessorIndices"},{"bufferView":1,"componentType":5126,"count":360,"max":[6170.0,244.0,376.0],"min":[5980.0,-8.158715E-26,-376.0],"type":"VEC3","name":"accessorPositions"},{"bufferView":1,"byteOffset":4320,"componentType":5126,"count":360,"type":"VEC3","name":"accessorNormals"},{"bufferView":2,"componentType":5126,"count":360,"type":"VEC2","name":"accessorUVs"}],"bufferViews":[{"buffer":0,"byteLength":720,"name":"bufferViewScalar"},{"buffer":0,"byteOffset":720,"byteLength":8640,"byteStride":12,"name":"bufferViewFloatVec3"},{"buffer":0,"byteOffset":9360,"byteLength":2880,"byteStride":8,"name":"bufferViewFloatVec2"}],"buffers":[{"uri":"Goal.bin","byteLength":12240}],"materials":[{"pbrMetallicRoughness":{"baseColorFactor":[1.0,1.0,1.0,1.0],"baseColorTexture":{"index":0},"metallicFactor":0.0,"roughnessFactor":0.28},"emissiveFactor":[0.0,0.0,0.0],"alphaMode":"BLEND","name":"Metal"}],"textures":[{"sampler":0,"source":0,"name":"Metal_baseColor.png"}],"images":[{"uri":"Metal_baseColor.png"}],"samplers":[{"magFilter":9729,"minFilter":9987,"wrapS":10497,"wrapT":10497}]}