{"asset":{"version":"2.0","generator":"Babylon2Gltf2017","copyright":"2017 (c) BabylonJS"},"extensionsUsed":[],"extensionsRequired":[],"scene":0,"scenes":[{"nodes":[0]}],"nodes":[{"mesh":0,"translation":[0.0,0.0,0.0],"rotation":[-5.96046448E-08,0.0,0.0,-1.0],"scale":[1.0,1.0,1.0],"name":"Goal"}],"meshes":[{"primitives":[{"attributes":{"POSITION":1,"NORMAL":2,"TEXCOORD_0":3},"indices":0,"mode":4,"material":0}],"name":"Goal"}],"accessors":[{"bufferView":0,"componentType":5123,"count":264,"type":"SCALAR","name":"accessorIndices"},{"bufferView":1,"componentType":5126,"count":264,"max":[6170.0,244.0,376.0],"min":[5980.0,0.0,-376.0],"type":"VEC3","name":"accessorPositions"},{"bufferView":1,"byteOffset":3168,"componentType":5126,"count":264,"type":"VEC3","name":"accessorNormals"},{"bufferView":2,"componentType":5126,"count":264,"type":"VEC2","name":"accessorUVs"}],"bufferViews":[{"buffer":0,"byteLength":528,"name":"bufferViewScalar"},{"buffer":0,"byteOffset":528,"byteLength":6336,"byteStride":12,"name":"bufferViewFloatVec3"},{"buffer":0,"byteOffset":6864,"byteLength":2112,"byteStride":8,"name":"bufferViewFloatVec2"}],"buffers":[{"uri":"Goal.bin","byteLength":8976}],"materials":[{"pbrMetallicRoughness":{"baseColorFactor":[1.0,1.0,1.0,1.0],"baseColorTexture":{"index":0},"metallicFactor":0.0,"roughnessFactor":0.28},"emissiveFactor":[0.0,0.0,0.0],"alphaMode":"BLEND","name":"Metal"}],"textures":[{"sampler":0,"source":0,"name":"Metal_baseColor.png"}],"images":[{"uri":"Metal_baseColor.png"}],"samplers":[{"magFilter":9729,"minFilter":9987,"wrapS":10497,"wrapT":10497}]}