{"asset":{"version":"2.0","generator":"Babylon2Gltf2017","copyright":"2017 (c) BabylonJS"},"extensionsUsed":[],"extensionsRequired":[],"scene":0,"scenes":[{"nodes":[0]}],"nodes":[{"mesh":0,"translation":[-20.0,0.0,-2.251149E-11],"rotation":[-9.284949E-23,1.0,-2.61956234E-29,2.82129974E-07],"scale":[1.0,1.0,1.0],"name":"Goal:1"}],"meshes":[{"primitives":[{"attributes":{"POSITION":1,"NORMAL":2,"TEXCOORD_0":3},"indices":0,"mode":4,"material":0},{"attributes":{"POSITION":5,"NORMAL":6,"TEXCOORD_0":7},"indices":4,"mode":4,"material":1}],"name":"Goal:1"}],"accessors":[{"bufferView":0,"componentType":5123,"count":360,"type":"SCALAR","name":"accessorIndices"},{"bufferView":1,"componentType":5126,"count":360,"max":[6170.0,244.0,376.0],"min":[5980.0,-8.158715E-26,-376.0],"type":"VEC3","name":"accessorPositions"},{"bufferView":1,"byteOffset":4320,"componentType":5126,"count":360,"type":"VEC3","name":"accessorNormals"},{"bufferView":2,"componentType":5126,"count":360,"type":"VEC2","name":"accessorUVs"},{"bufferView":0,"byteOffset":720,"componentType":5123,"count":48,"type":"SCALAR","name":"accessorIndices"},{"bufferView":1,"byteOffset":8640,"componentType":5126,"count":48,"max":[6161.0,235.0,367.0],"min":[6000.0,20.0,-367.0],"type":"VEC3","name":"accessorPositions"},{"bufferView":1,"byteOffset":9216,"componentType":5126,"count":48,"type":"VEC3","name":"accessorNormals"},{"bufferView":2,"byteOffset":2880,"componentType":5126,"count":48,"type":"VEC2","name":"accessorUVs"}],"bufferViews":[{"buffer":0,"byteLength":816,"name":"bufferViewScalar"},{"buffer":0,"byteOffset":816,"byteLength":9792,"byteStride":12,"name":"bufferViewFloatVec3"},{"buffer":0,"byteOffset":10608,"byteLength":3264,"byteStride":8,"name":"bufferViewFloatVec2"}],"buffers":[{"uri":"Goal.bin","byteLength":13872}],"materials":[{"pbrMetallicRoughness":{"baseColorFactor":[0.656078458,0.656078458,0.7,1.0],"metallicFactor":0.0,"roughnessFactor":0.28},"emissiveFactor":[0.0,0.0,0.0],"alphaMode":"OPAQUE","name":"Material #28"},{"pbrMetallicRoughness":{"baseColorFactor":[0.235294133,0.235294133,0.235294133,1.0],"metallicFactor":0.0,"roughnessFactor":0.0},"emissiveFactor":[0.0,0.0,0.0],"alphaMode":"OPAQUE","name":"Material #29"}]}