{"asset":{"version":"2.0","generator":"Babylon2Gltf2017","copyright":"2017 (c) BabylonJS"},"extensionsUsed":[],"extensionsRequired":[],"scene":0,"scenes":[{"nodes":[0]}],"nodes":[{"mesh":0,"translation":[-5429.836,5467.15234,-3917.90552],"rotation":[-0.653281569,-0.270598054,0.2705981,-0.6532814],"scale":[1.0,1.0,1.0],"name":"Lights:1"}],"meshes":[{"primitives":[{"attributes":{"POSITION":1,"NORMAL":2,"TEXCOORD_0":3},"indices":0,"mode":4,"material":0},{"attributes":{"POSITION":5,"NORMAL":6,"TEXCOORD_0":7},"indices":4,"mode":4,"material":1},{"attributes":{"POSITION":9,"NORMAL":10,"TEXCOORD_0":11},"indices":8,"mode":4,"material":2},{"attributes":{"POSITION":13,"NORMAL":14,"TEXCOORD_0":15},"indices":12,"mode":4,"material":3}],"name":"Lights:1"}],"accessors":[{"bufferView":0,"componentType":5123,"count":10806,"type":"SCALAR","name":"accessorIndices"},{"bufferView":1,"componentType":5126,"count":10806,"max":[1285.47021,1039.44727,5466.15234],"min":[-1285.47021,-1433.84766,-898.0259],"type":"VEC3","name":"accessorPositions"},{"bufferView":1,"byteOffset":129672,"componentType":5126,"count":10806,"type":"VEC3","name":"accessorNormals"},{"bufferView":2,"componentType":5126,"count":10806,"type":"VEC2","name":"accessorUVs"},{"bufferView":0,"byteOffset":21612,"componentType":5123,"count":2406,"type":"SCALAR","name":"accessorIndices"},{"bufferView":1,"byteOffset":259344,"componentType":5126,"count":2406,"max":[1300.00024,919.2388,919.2388],"min":[-1300.00024,-919.239258,-919.239258],"type":"VEC3","name":"accessorPositions"},{"bufferView":1,"byteOffset":288216,"componentType":5126,"count":2406,"type":"VEC3","name":"accessorNormals"},{"bufferView":2,"byteOffset":86448,"componentType":5126,"count":2406,"type":"VEC2","name":"accessorUVs"},{"bufferView":0,"byteOffset":26424,"componentType":5123,"count":264,"type":"SCALAR","name":"accessorIndices"},{"bufferView":1,"byteOffset":317088,"componentType":5126,"count":264,"max":[1330.0,1088.94434,5466.15234],"min":[-1330.0,-1433.84766,-947.523438],"type":"VEC3","name":"accessorPositions"},{"bufferView":1,"byteOffset":320256,"componentType":5126,"count":264,"type":"VEC3","name":"accessorNormals"},{"bufferView":2,"byteOffset":105696,"componentType":5126,"count":264,"type":"VEC2","name":"accessorUVs"},{"bufferView":0,"byteOffset":26952,"componentType":5123,"count":1200,"type":"SCALAR","name":"accessorIndices"},{"bufferView":1,"byteOffset":323424,"componentType":5126,"count":1200,"max":[1283.16089,896.6113,896.6118],"min":[-1283.16064,-896.6123,-896.6118],"type":"VEC3","name":"accessorPositions"},{"bufferView":1,"byteOffset":337824,"componentType":5126,"count":1200,"type":"VEC3","name":"accessorNormals"},{"bufferView":2,"byteOffset":107808,"componentType":5126,"count":1200,"type":"VEC2","name":"accessorUVs"}],"bufferViews":[{"buffer":0,"byteLength":29352,"name":"bufferViewScalar"},{"buffer":0,"byteOffset":29352,"byteLength":352224,"byteStride":12,"name":"bufferViewFloatVec3"},{"buffer":0,"byteOffset":381576,"byteLength":117408,"byteStride":8,"name":"bufferViewFloatVec2"}],"buffers":[{"uri":"Light.bin","byteLength":498984}],"materials":[{"pbrMetallicRoughness":{"baseColorFactor":[0.9725491,1.0,0.521568656,1.0],"metallicFactor":0.0,"roughnessFactor":0.0},"emissiveFactor":[0.0,0.0,0.0],"alphaMode":"OPAQUE","name":"Material #41"},{"pbrMetallicRoughness":{"baseColorFactor":[0.0,0.0,0.0,1.0],"metallicFactor":0.0,"roughnessFactor":0.0},"emissiveFactor":[0.0,0.0,0.0],"alphaMode":"OPAQUE","name":"Material #42"},{"pbrMetallicRoughness":{"baseColorFactor":[0.305882365,0.305882365,0.305882365,1.0],"metallicFactor":0.0,"roughnessFactor":0.0},"emissiveFactor":[0.0,0.0,0.0],"alphaMode":"OPAQUE","name":"Material #43"},{"pbrMetallicRoughness":{"baseColorFactor":[0.9960785,0.9686275,0.7803922,1.0],"metallicFactor":0.0,"roughnessFactor":0.0},"emissiveFactor":[0.0,0.0,0.0],"alphaMode":"OPAQUE","name":"Material #44"}]}