{"asset":{"version":"2.0","generator":"Babylon2Gltf2017","copyright":"2017 (c) BabylonJS"},"extensionsUsed":[],"extensionsRequired":[],"scene":0,"scenes":[{"nodes":[0]}],"nodes":[{"mesh":0,"translation":[6303.3335,1.0,-163.659424],"rotation":[-2.18556941E-08,0.0,0.0,-1.0],"scale":[1.0,1.0,1.0],"name":"Scoreboard:1"}],"meshes":[{"primitives":[{"attributes":{"POSITION":1,"NORMAL":2,"TEXCOORD_0":3},"indices":0,"mode":4,"material":0},{"attributes":{"POSITION":5,"NORMAL":6,"TEXCOORD_0":7},"indices":4,"mode":4,"material":1}],"name":"Scoreboard:1"}],"accessors":[{"bufferView":0,"componentType":5123,"count":6,"type":"SCALAR","name":"accessorIndices"},{"bufferView":1,"componentType":5126,"count":6,"max":[-3903.33325,2100.0,-4600.0],"min":[-8703.333,300.0,-4600.0],"type":"VEC3","name":"accessorPositions"},{"bufferView":1,"byteOffset":72,"componentType":5126,"count":6,"type":"VEC3","name":"accessorNormals"},{"bufferView":2,"componentType":5126,"count":6,"type":"VEC2","name":"accessorUVs"},{"bufferView":0,"byteOffset":12,"componentType":5123,"count":294,"type":"SCALAR","name":"accessorIndices"},{"bufferView":1,"byteOffset":144,"componentType":5126,"count":294,"max":[-3803.33325,2200.0,-4550.0],"min":[-8803.333,-5.96046448E-08,-4750.0],"type":"VEC3","name":"accessorPositions"},{"bufferView":1,"byteOffset":3672,"componentType":5126,"count":294,"type":"VEC3","name":"accessorNormals"},{"bufferView":2,"byteOffset":48,"componentType":5126,"count":294,"type":"VEC2","name":"accessorUVs"}],"bufferViews":[{"buffer":0,"byteLength":600,"name":"bufferViewScalar"},{"buffer":0,"byteOffset":600,"byteLength":7200,"byteStride":12,"name":"bufferViewFloatVec3"},{"buffer":0,"byteOffset":7800,"byteLength":2400,"byteStride":8,"name":"bufferViewFloatVec2"}],"buffers":[{"uri":"Scoreboard.bin","byteLength":10200}],"materials":[{"pbrMetallicRoughness":{"baseColorFactor":[0.0,0.0,0.0,1.0],"metallicFactor":0.0,"roughnessFactor":0.0},"emissiveFactor":[0.0,0.0,0.0],"alphaMode":"OPAQUE","name":"Material #86"},{"pbrMetallicRoughness":{"baseColorFactor":[1.0,1.0,1.0,1.0],"baseColorTexture":{"index":0},"metallicFactor":0.0,"roughnessFactor":0.3535534},"emissiveFactor":[0.0,0.0,0.0],"alphaMode":"OPAQUE","name":"Material #87"}],"textures":[{"sampler":0,"source":0,"name":"Material #87_baseColor.png"}],"images":[{"uri":"Material #87_baseColor.png"}],"samplers":[{"magFilter":9729,"minFilter":9987,"wrapS":10497,"wrapT":10497}]}