{"asset":{"version":"2.0","generator":"Babylon2Gltf2017","copyright":"2017 (c) BabylonJS"},"extensionsUsed":[],"extensionsRequired":[],"scene":0,"scenes":[{"nodes":[0]}],"nodes":[{"mesh":0,"translation":[6074.5415,122.106262,-366.7524],"rotation":[7.305547E-08,-0.7071067,-0.7071068,-1.12382263E-08],"scale":[1.0,1.0,1.0],"name":"SideNetGoal"}],"meshes":[{"primitives":[{"attributes":{"POSITION":1,"NORMAL":2,"TEXCOORD_0":3},"indices":0,"mode":4,"material":0}],"name":"SideNetGoal"}],"accessors":[{"bufferView":0,"componentType":5123,"count":13716,"type":"SCALAR","name":"accessorIndices"},{"bufferView":1,"componentType":5126,"count":13716,"max":[75.0,0.0,102.000015],"min":[-75.0,-3.05175781E-05,-101.999992],"type":"VEC3","name":"accessorPositions"},{"bufferView":1,"byteOffset":164592,"componentType":5126,"count":13716,"type":"VEC3","name":"accessorNormals"},{"bufferView":2,"componentType":5126,"count":13716,"type":"VEC2","name":"accessorUVs"}],"bufferViews":[{"buffer":0,"byteLength":27432,"name":"bufferViewScalar"},{"buffer":0,"byteOffset":27432,"byteLength":329184,"byteStride":12,"name":"bufferViewFloatVec3"},{"buffer":0,"byteOffset":356616,"byteLength":109728,"byteStride":8,"name":"bufferViewFloatVec2"}],"buffers":[{"uri":"SideNetGoal.bin","byteLength":466344}],"materials":[{"pbrMetallicRoughness":{"baseColorFactor":[0.0,0.733333349,0.7607844,1.0],"metallicFactor":0.0,"roughnessFactor":0.0},"emissiveFactor":[0.0,0.0,0.0],"alphaMode":"OPAQUE","name":"Net"}]}