{"asset":{"version":"2.0","generator":"Babylon2Gltf2017","copyright":"2017 (c) BabylonJS"},"extensionsUsed":[],"extensionsRequired":[],"scene":0,"scenes":[{"nodes":[0]}],"nodes":[{"mesh":0,"translation":[0.0,0.0,0.0],"rotation":[-5.96046448E-08,0.0,0.0,-1.0],"scale":[1.0,1.0,1.0],"name":"SkyBox"}],"meshes":[{"primitives":[{"attributes":{"POSITION":1,"NORMAL":2,"TEXCOORD_0":3},"indices":0,"mode":4,"material":0}],"name":"SkyBox"}],"accessors":[{"bufferView":0,"componentType":5123,"count":228,"type":"SCALAR","name":"accessorIndices"},{"bufferView":1,"componentType":5126,"count":228,"max":[6500.0,520.0,376.0],"min":[6000.0,250.0,-376.0],"type":"VEC3","name":"accessorPositions"},{"bufferView":1,"byteOffset":2736,"componentType":5126,"count":228,"type":"VEC3","name":"accessorNormals"},{"bufferView":2,"componentType":5126,"count":228,"type":"VEC2","name":"accessorUVs"}],"bufferViews":[{"buffer":0,"byteLength":456,"name":"bufferViewScalar"},{"buffer":0,"byteOffset":456,"byteLength":5472,"byteStride":12,"name":"bufferViewFloatVec3"},{"buffer":0,"byteOffset":5928,"byteLength":1824,"byteStride":8,"name":"bufferViewFloatVec2"}],"buffers":[{"uri":"SkyBox.bin","byteLength":7752}],"materials":[{"pbrMetallicRoughness":{"baseColorFactor":[1.0,1.0,1.0,1.0],"baseColorTexture":{"index":0},"metallicFactor":0.0,"roughnessFactor":0.0},"emissiveFactor":[0.0,0.0,0.0],"alphaMode":"OPAQUE","name":"Wood"}],"textures":[{"sampler":0,"source":0,"name":"Wood_baseColor.png"}],"images":[{"uri":"Wood_baseColor.png"}],"samplers":[{"magFilter":9729,"minFilter":9987,"wrapS":10497,"wrapT":10497}]}