{"asset":{"version":"2.0","generator":"Babylon2Gltf2017","copyright":"2017 (c) BabylonJS"},"extensionsUsed":[],"extensionsRequired":[],"scene":0,"scenes":[{"nodes":[0]}],"nodes":[{"mesh":0,"translation":[6250.0,2143.491,0.0],"rotation":[0.0,0.0,-5.96046448E-08,-1.0],"scale":[1.0,1.0,1.0],"name":"SkyBox"}],"meshes":[{"primitives":[{"attributes":{"POSITION":1,"NORMAL":2,"TEXCOORD_0":3},"indices":0,"mode":4,"material":0}],"name":"SkyBox"}],"accessors":[{"bufferView":0,"componentType":5123,"count":252,"type":"SCALAR","name":"accessorIndices"},{"bufferView":1,"componentType":5126,"count":252,"max":[250.0,185.0,376.0],"min":[-250.0,-185.0,-376.0],"type":"VEC3","name":"accessorPositions"},{"bufferView":1,"byteOffset":3024,"componentType":5126,"count":252,"type":"VEC3","name":"accessorNormals"},{"bufferView":2,"componentType":5126,"count":252,"type":"VEC2","name":"accessorUVs"}],"bufferViews":[{"buffer":0,"byteLength":504,"name":"bufferViewScalar"},{"buffer":0,"byteOffset":504,"byteLength":6048,"byteStride":12,"name":"bufferViewFloatVec3"},{"buffer":0,"byteOffset":6552,"byteLength":2016,"byteStride":8,"name":"bufferViewFloatVec2"}],"buffers":[{"uri":"SkyBox.bin","byteLength":8568}],"materials":[{"pbrMetallicRoughness":{"baseColorFactor":[1.0,1.0,1.0,1.0],"baseColorTexture":{"index":0},"metallicFactor":0.0,"roughnessFactor":0.0},"emissiveFactor":[0.0,0.0,0.0],"alphaMode":"OPAQUE","name":"Wood"}],"textures":[{"sampler":0,"source":0,"name":"Wood_baseColor.png"}],"images":[{"uri":"Wood_baseColor.png"}],"samplers":[{"magFilter":9729,"minFilter":9987,"wrapS":10497,"wrapT":10497}]}