{"asset":{"version":"2.0","generator":"Babylon2Gltf2017","copyright":"2017 (c) BabylonJS"},"extensionsUsed":[],"extensionsRequired":[],"scene":0,"scenes":[{"nodes":[0]}],"nodes":[{"mesh":0,"translation":[0.0,0.0,0.0],"rotation":[-1.72411027E-38,1.0,-5.605194E-45,2.82129974E-07],"scale":[1.0,1.0,1.0],"name":"SkyBox:1"}],"meshes":[{"primitives":[{"attributes":{"POSITION":1,"NORMAL":2,"TEXCOORD_0":3},"indices":0,"mode":4,"material":0}],"name":"SkyBox:1"}],"accessors":[{"bufferView":0,"componentType":5123,"count":366,"type":"SCALAR","name":"accessorIndices"},{"bufferView":1,"componentType":5126,"count":366,"max":[6400.0,520.0,736.0],"min":[6000.0,-1.048171E-41,-376.0],"type":"VEC3","name":"accessorPositions"},{"bufferView":1,"byteOffset":4392,"componentType":5126,"count":366,"type":"VEC3","name":"accessorNormals"},{"bufferView":2,"componentType":5126,"count":366,"type":"VEC2","name":"accessorUVs"}],"bufferViews":[{"buffer":0,"byteLength":732,"name":"bufferViewScalar"},{"buffer":0,"byteOffset":732,"byteLength":8784,"byteStride":12,"name":"bufferViewFloatVec3"},{"buffer":0,"byteOffset":9516,"byteLength":2928,"byteStride":8,"name":"bufferViewFloatVec2"}],"buffers":[{"uri":"SkyBox.bin","byteLength":12444}],"materials":[{"pbrMetallicRoughness":{"baseColorFactor":[1.0,1.0,1.0,1.0],"baseColorTexture":{"index":0},"metallicFactor":0.0,"roughnessFactor":0.0},"emissiveFactor":[0.0,0.0,0.0],"alphaMode":"OPAQUE","name":"Skyboxes"}],"textures":[{"sampler":0,"source":0,"name":"Skyboxes_baseColor.png"}],"images":[{"uri":"Skyboxes_baseColor.png"}],"samplers":[{"magFilter":9729,"minFilter":9987,"wrapS":10497,"wrapT":10497}]}