{"asset":{"version":"2.0","generator":"Babylon2Gltf2017","copyright":"2017 (c) BabylonJS"},"extensionsUsed":[],"extensionsRequired":[],"scene":0,"scenes":[{"nodes":[0]}],"nodes":[{"mesh":0,"translation":[0.0,0.0,0.0],"rotation":[0.0,0.0,0.0,-1.0],"scale":[1.0,1.0,1.0],"name":"GeoSphere001"}],"meshes":[{"primitives":[{"attributes":{"POSITION":1,"NORMAL":2,"COLOR_0":3,"TEXCOORD_0":4},"indices":0}],"name":"GeoSphere001"}],"accessors":[{"bufferView":0,"componentType":5123,"count":540,"type":"SCALAR","name":"accessorIndices"},{"bufferView":1,"componentType":5126,"count":540,"max":[20000.0,20000.1582,19999.7363],"min":[-19999.8887,0.4838552,-20000.1563],"type":"VEC3","name":"accessorPositions"},{"bufferView":1,"byteOffset":6480,"componentType":5126,"count":540,"type":"VEC3","name":"accessorNormals"},{"bufferView":2,"componentType":5126,"count":540,"type":"VEC4","name":"accessorColors"},{"bufferView":3,"componentType":5126,"count":540,"type":"VEC2","name":"accessorUVs"}],"bufferViews":[{"buffer":0,"byteLength":1080,"name":"bufferViewScalar"},{"buffer":0,"byteOffset":1080,"byteLength":12960,"byteStride":12,"name":"bufferViewFloatVec3"},{"buffer":0,"byteOffset":14040,"byteLength":8640,"byteStride":16,"name":"bufferViewFloatVec4"},{"buffer":0,"byteOffset":22680,"byteLength":4320,"byteStride":8,"name":"bufferViewFloatVec2"}],"buffers":[{"uri":"SkySphere.bin","byteLength":27000}]}