{"asset":{"version":"2.0","generator":"Babylon2Gltf2017","copyright":"2017 (c) BabylonJS"},"extensionsUsed":[],"extensionsRequired":[],"scene":0,"scenes":[{"nodes":[0]}],"nodes":[{"mesh":0,"translation":[0.0,0.0,0.0],"rotation":[0.0,0.0,-5.96046448E-08,-1.0],"scale":[1.0,1.0,1.0],"name":"Stadium"}],"meshes":[{"primitives":[{"attributes":{"POSITION":1,"NORMAL":2,"TEXCOORD_0":3},"indices":0,"mode":4,"material":0}],"name":"Stadium"}],"accessors":[{"bufferView":0,"componentType":5123,"count":3000,"type":"SCALAR","name":"accessorIndices"},{"bufferView":1,"componentType":5126,"count":3000,"max":[7691.04053,1353.55334,6190.0],"min":[-7691.04053,0.0,-6190.0],"type":"VEC3","name":"accessorPositions"},{"bufferView":1,"byteOffset":36000,"componentType":5126,"count":3000,"type":"VEC3","name":"accessorNormals"},{"bufferView":2,"componentType":5126,"count":3000,"type":"VEC2","name":"accessorUVs"}],"bufferViews":[{"buffer":0,"byteLength":6000,"name":"bufferViewScalar"},{"buffer":0,"byteOffset":6000,"byteLength":72000,"byteStride":12,"name":"bufferViewFloatVec3"},{"buffer":0,"byteOffset":78000,"byteLength":24000,"byteStride":8,"name":"bufferViewFloatVec2"}],"buffers":[{"uri":"Stadium.bin","byteLength":102000}],"materials":[{"pbrMetallicRoughness":{"baseColorFactor":[1.0,1.0,1.0,1.0],"baseColorTexture":{"index":0},"metallicFactor":0.0,"roughnessFactor":0.0},"emissiveFactor":[0.0,0.0,0.0],"alphaMode":"OPAQUE","name":"Concrete"}],"textures":[{"sampler":0,"source":0,"name":"Concrete_baseColor.png"}],"images":[{"uri":"Concrete_baseColor.png"}],"samplers":[{"magFilter":9729,"minFilter":9987,"wrapS":10497,"wrapT":10497}]}