{"asset":{"version":"2.0","generator":"Babylon2Gltf2017","copyright":"2017 (c) BabylonJS"},"extensionsUsed":[],"extensionsRequired":[],"scene":0,"scenes":[{"nodes":[0]}],"nodes":[{"mesh":0,"translation":[6143.951,234.483246,349.28006],"rotation":[0.0,0.0,-1.0,1.62920685E-07],"scale":[1.0,1.0,1.0],"name":"TopNetGoal"}],"meshes":[{"primitives":[{"attributes":{"POSITION":1,"NORMAL":2,"TEXCOORD_0":3},"indices":0,"mode":4,"material":0}],"name":"TopNetGoal"}],"accessors":[{"bufferView":0,"componentType":5123,"count":45936,"type":"SCALAR","name":"accessorIndices"},{"bufferView":1,"componentType":5126,"count":45936,"max":[143.957031,0.500015259,6.72360229],"min":[-6.04296875,0.5,-705.276367],"type":"VEC3","name":"accessorPositions"},{"bufferView":1,"byteOffset":551232,"componentType":5126,"count":45936,"type":"VEC3","name":"accessorNormals"},{"bufferView":2,"componentType":5126,"count":45936,"type":"VEC2","name":"accessorUVs"}],"bufferViews":[{"buffer":0,"byteLength":91872,"name":"bufferViewScalar"},{"buffer":0,"byteOffset":91872,"byteLength":1102464,"byteStride":12,"name":"bufferViewFloatVec3"},{"buffer":0,"byteOffset":1194336,"byteLength":367488,"byteStride":8,"name":"bufferViewFloatVec2"}],"buffers":[{"uri":"TopNetGoal.bin","byteLength":1561824}],"materials":[{"pbrMetallicRoughness":{"baseColorFactor":[0.0,0.733333349,0.7607844,1.0],"metallicFactor":0.0,"roughnessFactor":0.0},"emissiveFactor":[0.0,0.0,0.0],"alphaMode":"OPAQUE","name":"Net"}]}