{"asset":{"version":"2.0","generator":"Babylon2Gltf2017","copyright":"2017 (c) BabylonJS"},"extensionsUsed":[],"extensionsRequired":[],"scene":0,"scenes":[{"nodes":[0]}],"nodes":[{"mesh":0,"translation":[-6303.3335,1.0,186.0474],"rotation":[0.0,1.0,0.0,2.82129974E-07],"scale":[1.0,1.0,1.0],"name":"VideoJukebox:1"}],"meshes":[{"primitives":[{"attributes":{"POSITION":1,"NORMAL":2,"TEXCOORD_0":3},"indices":0,"mode":4,"material":0},{"attributes":{"POSITION":5,"NORMAL":6,"TEXCOORD_0":7},"indices":4,"mode":4,"material":1},{"attributes":{"POSITION":9,"NORMAL":10,"TEXCOORD_0":11},"indices":8,"mode":4,"material":2}],"name":"VideoJukebox:1"}],"accessors":[{"bufferView":0,"componentType":5123,"count":246,"type":"SCALAR","name":"accessorIndices"},{"bufferView":1,"componentType":5126,"count":246,"max":[-4603.334,2200.0,-4550.0],"min":[-8003.334,0.0,-4750.0],"type":"VEC3","name":"accessorPositions"},{"bufferView":1,"byteOffset":2952,"componentType":5126,"count":246,"type":"VEC3","name":"accessorNormals"},{"bufferView":2,"componentType":5126,"count":246,"type":"VEC2","name":"accessorUVs"},{"bufferView":0,"byteOffset":492,"componentType":5123,"count":6,"type":"SCALAR","name":"accessorIndices"},{"bufferView":1,"byteOffset":5904,"componentType":5126,"count":6,"max":[-4703.334,2100.0,-4600.0],"min":[-7903.334,300.0,-4600.0],"type":"VEC3","name":"accessorPositions"},{"bufferView":1,"byteOffset":5976,"componentType":5126,"count":6,"type":"VEC3","name":"accessorNormals"},{"bufferView":2,"byteOffset":1968,"componentType":5126,"count":6,"type":"VEC2","name":"accessorUVs"},{"bufferView":0,"byteOffset":504,"componentType":5123,"count":48,"type":"SCALAR","name":"accessorIndices"},{"bufferView":1,"byteOffset":6048,"componentType":5126,"count":48,"max":[-5203.334,200.0,-4600.0],"min":[-7403.334,0.0,-4700.00049],"type":"VEC3","name":"accessorPositions"},{"bufferView":1,"byteOffset":6624,"componentType":5126,"count":48,"type":"VEC3","name":"accessorNormals"},{"bufferView":2,"byteOffset":2016,"componentType":5126,"count":48,"type":"VEC2","name":"accessorUVs"}],"bufferViews":[{"buffer":0,"byteLength":600,"name":"bufferViewScalar"},{"buffer":0,"byteOffset":600,"byteLength":7200,"byteStride":12,"name":"bufferViewFloatVec3"},{"buffer":0,"byteOffset":7800,"byteLength":2400,"byteStride":8,"name":"bufferViewFloatVec2"}],"buffers":[{"uri":"VideoJukebox.bin","byteLength":10200}],"materials":[{"pbrMetallicRoughness":{"baseColorFactor":[0.553956866,0.163716167,0.0119558973,1.0],"metallicFactor":0.0,"roughnessFactor":0.0},"emissiveFactor":[0.0,0.0,0.0],"alphaMode":"OPAQUE","name":"Material #86"},{"pbrMetallicRoughness":{"baseColorFactor":[0.0,0.0,0.0,1.0],"metallicFactor":0.0,"roughnessFactor":0.0},"emissiveFactor":[0.0,0.0,0.0],"alphaMode":"OPAQUE","name":"Material #87"},{"pbrMetallicRoughness":{"baseColorFactor":[0.286274523,0.286274523,0.286274523,1.0],"metallicFactor":0.0,"roughnessFactor":0.0},"emissiveFactor":[0.0,0.0,0.0],"alphaMode":"OPAQUE","name":"Material #88"}]}