{"asset":{"version":"2.0","generator":"Babylon2Gltf2017","copyright":"2017 (c) BabylonJS"},"extensionsUsed":[],"extensionsRequired":[],"scene":0,"scenes":[{"nodes":[0]}],"nodes":[{"mesh":0,"translation":[-6303.3335,1.0,186.0474],"rotation":[0.0,1.0,0.0,2.82129974E-07],"scale":[1.0,1.0,1.0],"name":"VideoJukebox:1"}],"meshes":[{"primitives":[{"attributes":{"POSITION":1,"NORMAL":2,"TEXCOORD_0":3},"indices":0,"mode":4,"material":0}],"name":"VideoJukebox:1"}],"accessors":[{"bufferView":0,"componentType":5123,"count":300,"type":"SCALAR","name":"accessorIndices"},{"bufferView":1,"componentType":5126,"count":300,"max":[-4603.334,2200.0,-4550.0],"min":[-8003.334,0.0,-4750.0],"type":"VEC3","name":"accessorPositions"},{"bufferView":1,"byteOffset":3600,"componentType":5126,"count":300,"type":"VEC3","name":"accessorNormals"},{"bufferView":2,"componentType":5126,"count":300,"type":"VEC2","name":"accessorUVs"}],"bufferViews":[{"buffer":0,"byteLength":600,"name":"bufferViewScalar"},{"buffer":0,"byteOffset":600,"byteLength":7200,"byteStride":12,"name":"bufferViewFloatVec3"},{"buffer":0,"byteOffset":7800,"byteLength":2400,"byteStride":8,"name":"bufferViewFloatVec2"}],"buffers":[{"uri":"VideoJukebox.bin","byteLength":10200}],"materials":[{"pbrMetallicRoughness":{"baseColorFactor":[1.0,1.0,1.0,1.0],"baseColorTexture":{"index":0},"metallicFactor":0.0,"roughnessFactor":0.0},"emissiveFactor":[0.0,0.0,0.0],"alphaMode":"OPAQUE","name":"Wood"}],"textures":[{"sampler":0,"source":0,"name":"Wood_baseColor.png"}],"images":[{"uri":"Wood_baseColor.png"}],"samplers":[{"magFilter":9729,"minFilter":9987,"wrapS":10497,"wrapT":10497}]}